<?xml version="1.0" standalone="no"?>
<!DOCTYPE svg PUBLIC "-//W3C//DTD SVG 20010904//EN"
 "http://www.w3.org/TR/2001/REC-SVG-20010904/DTD/svg10.dtd">
<svg version="1.0" xmlns="http://www.w3.org/2000/svg"
 width="1250.000000pt" height="1250.000000pt" viewBox="0 0 1250.000000 1250.000000"
 preserveAspectRatio="xMidYMid meet">
<metadata>
Created by potrace 1.11, written by Peter Selinger 2001-2013
</metadata>
<g transform="translate(0.000000,1250.000000) scale(0.100000,-0.100000)"
fill="#000000" stroke="none">
<path d="M6259 11155 c-2 -2 -18 -5 -35 -8 -75 -12 -189 -90 -263 -181 -39
-50 -148 -231 -308 -516 -88 -157 -485 -852 -524 -918 -27 -45 -49 -84 -49
-86 0 -2 -23 -43 -51 -92 -29 -49 -65 -114 -82 -144 -16 -30 -34 -60 -38 -66
-5 -6 -20 -31 -33 -55 -25 -48 -37 -68 -116 -204 -29 -49 -63 -110 -76 -135
-14 -25 -33 -58 -43 -75 -10 -16 -49 -86 -88 -156 -98 -175 -97 -173 -103
-179 -3 -3 -13 -21 -24 -40 -10 -19 -28 -51 -38 -70 -11 -19 -88 -154 -171
-300 -82 -146 -174 -307 -204 -358 -30 -51 -68 -118 -85 -150 -17 -31 -34 -61
-38 -67 -4 -5 -19 -30 -32 -55 -14 -25 -96 -168 -182 -319 -86 -151 -156 -276
-156 -278 0 -2 -8 -16 -19 -31 -10 -15 -95 -162 -189 -327 -207 -366 -209
-370 -239 -423 -13 -24 -93 -163 -177 -310 -84 -147 -167 -292 -183 -322 -17
-30 -72 -126 -122 -214 -50 -87 -91 -161 -91 -164 0 -3 -6 -13 -14 -21 -7 -9
-27 -42 -44 -73 -17 -31 -142 -251 -277 -489 -136 -237 -256 -449 -268 -471
-12 -21 -26 -47 -32 -56 -27 -47 -105 -182 -127 -222 -60 -107 -179 -316 -187
-330 -6 -8 -60 -103 -121 -210 -61 -107 -122 -215 -137 -240 -14 -25 -38 -66
-52 -92 -14 -25 -82 -145 -151 -265 -224 -392 -248 -449 -248 -605 0 -97 23
-168 79 -242 64 -84 204 -155 339 -173 70 -9 10038 -9 10106 0 204 27 350 135
403 298 40 123 4 310 -89 469 -46 78 -178 309 -212 370 -26 46 -44 78 -288
505 -79 138 -153 268 -165 290 -12 22 -231 407 -487 855 -255 448 -482 846
-504 885 -21 38 -43 78 -49 87 -26 45 -141 245 -151 263 -6 11 -75 133 -154
270 -78 138 -151 266 -162 285 -11 19 -27 49 -37 65 -10 17 -29 50 -43 75 -14
25 -80 142 -148 260 -67 118 -133 235 -147 260 -14 25 -29 50 -33 55 -4 6 -20
33 -35 60 -66 122 -209 372 -226 397 -11 15 -19 29 -19 32 0 2 -32 60 -71 128
-39 67 -85 148 -101 178 -40 72 -107 188 -127 220 -8 14 -16 27 -16 30 -1 6
-80 143 -111 192 -13 21 -24 39 -24 42 0 2 -61 111 -136 242 -75 132 -146 255
-157 274 -10 19 -76 134 -145 255 -69 121 -136 240 -150 265 -14 25 -36 62
-49 82 -12 21 -23 39 -23 42 0 2 -48 86 -106 187 -58 101 -119 208 -136 238
-16 29 -43 76 -59 103 -16 27 -29 51 -29 53 0 2 -13 25 -29 52 -26 42 -188
327 -259 453 -31 56 -119 210 -132 230 -5 8 -23 42 -41 75 -17 33 -39 71 -48
85 -10 14 -44 72 -76 130 -75 135 -108 183 -168 247 -90 95 -184 142 -298 149
-37 1 -68 1 -70 -1z"/>
</g>
</svg>
